<?xml version="1.0" encoding="UTF-8"?><svg id="Ebene_1" xmlns="http://www.w3.org/2000/svg" viewBox="0 0 318.81 353.38"><defs><style>.cls-1,.cls-2{stroke:#1e1e1c;}.cls-1,.cls-2,.cls-3{stroke-miterlimit:10;}.cls-1,.cls-3{fill:#fff;}.cls-2{fill:#119a9a;}.cls-3{stroke:#fff;}</style></defs><g id="Ebene_1-2"><circle class="cls-2" cx="179.64" cy="176.23" r="122.47"/><path class="cls-3" d="M136.72,169.72c-3.55,0-6.41-2.64-6.41-5.92,0-.39,.04-.75,.13-1.14,1.17-4.27,10.17-32,49.19-32s48.03,27.73,49.19,32c.11,.39,.13,.75,.13,1.14,0,3.27-2.86,5.92-6.41,5.92h-85.82Zm18.25-19.53c0-1.79-1.59-3.25-3.52-3.25s-3.52,1.46-3.52,3.25,1.59,3.25,3.52,3.25,3.52-1.46,3.52-3.25Zm52.85,3.25c1.94,0,3.52-1.46,3.52-3.25s-1.59-3.25-3.52-3.25-3.52,1.46-3.52,3.25,1.59,3.25,3.52,3.25Zm-24.66-9.76c0-1.79-1.59-3.25-3.52-3.25s-3.52,1.46-3.52,3.25,1.59,3.25,3.52,3.25,3.52-1.46,3.52-3.25Zm-56.37,42.31c0-5.39,4.73-9.76,10.57-9.76h84.56c5.84,0,10.57,4.37,10.57,9.76s-4.73,9.76-10.57,9.76h-84.56c-5.84,0-10.57-4.37-10.57-9.76Zm3.52,19.53c0-1.79,1.59-3.25,3.52-3.25h91.6c1.94,0,3.52,1.46,3.52,3.25v3.25c0,7.18-6.32,13.02-14.09,13.02h-70.45c-7.77,0-14.09-5.84-14.09-13.02v-3.25h-.01Z"/><path class="cls-1" d="M178.03,84.82c-50.71,0-91.91,41.04-91.91,91.54s41.2,91.54,91.91,91.54c20.06,0,38.61-6.44,53.73-17.33l71.13,70.68,15.21-15.14-70.29-70.17c13.81-16.03,22.13-36.83,22.13-59.57,0-50.5-41.2-91.54-91.91-91.54h0Zm0,10.76c44.86,0,81.1,36.09,81.1,80.77s-36.24,80.77-81.1,80.77-81.1-36.09-81.1-80.77,36.24-80.77,81.1-80.77Z"/></g><g><path class="cls-2" d="M164.31,7.94c-9.96,.75-20.09,2.35-30.28,4.89-1.18,4.34-2.19,8.68-3.04,13.01,8.06-2.33,16.1-4.01,24.05-5.11,2.21-.3,3.75-.16,4.6,.39,.86,.54,1.1,1.37,.74,2.48-.36,1.11-1.17,2.04-2.43,2.83-1.26,.79-2.94,1.33-5.04,1.66-7.7,1.22-15.48,3.02-23.27,5.45-.85,5.54-1.43,11.05-1.75,16.51-.12,2.08-.79,3.83-2.01,5.3-1.22,1.47-2.74,2.59-4.6,3.4-1.89,.82-3.44,1.03-4.65,.56-1.22-.46-1.87-1.72-1.88-3.81-.08-12.94,1.27-26.28,4.1-39.75,.32-1.53,.94-2.89,1.84-4.07,.9-1.18,2.15-2.22,3.72-3.09,1.57-.87,3.5-1.62,5.76-2.21,12.6-3.29,25.15-5.19,37.43-5.84,2.49-.13,4.17,.15,5.04,.79,.87,.64,1.03,1.5,.51,2.57-.53,1.1-1.53,2-3.01,2.72-1.48,.72-3.41,1.15-5.83,1.33Z"/><path class="cls-2" d="M212.91,33.55c-1.37,2.25-3.08,4.23-5.12,5.96-2.05,1.73-4.32,3.13-6.86,4.25-2.54,1.12-5.24,1.91-8.17,2.41-2.93,.51-6.03,.68-9.38,.56-3.32-.12-6.22-.51-8.71-1.27-2.49-.75-4.58-1.81-6.22-3.24-1.65-1.42-2.76-3.15-3.27-5.21-.51-2.06-.4-4.41,.42-7.03,.83-2.64,2.24-5.11,4.25-7.36,2.01-2.24,4.5-4.16,7.43-5.68,2.94-1.53,6.26-2.63,9.9-3.25,3.64-.62,7.41-.7,11.25-.23,3.89,.48,7.14,1.44,9.72,2.76,2.59,1.32,4.45,2.94,5.64,4.78,1.19,1.84,1.67,3.84,1.49,5.96-.17,2.13-.99,4.31-2.37,6.58Zm-11.39-2.25c1.69-3.21,2.09-5.87,.94-8.01-1.14-2.12-3.6-3.48-7.39-3.88-2.45-.26-4.84-.03-7.13,.7-2.29,.72-4.32,1.91-6.05,3.55-1.73,1.64-3.02,3.59-3.88,5.82-.84,2.22-1.05,4.15-.68,5.8,.37,1.65,1.27,2.91,2.68,3.8,1.41,.89,3.24,1.37,5.51,1.48,3.43,.17,6.46-.51,9.29-2.12,2.83-1.61,5.04-3.96,6.72-7.14Z"/><path class="cls-2" d="M258.16,53.14c-1.88,1.73-3.96,3.1-6.23,4.13-2.28,1.03-4.63,1.69-7.12,1.98-2.48,.3-5,.23-7.61-.19-2.61-.42-5.26-1.22-8.04-2.39-2.75-1.16-5.07-2.46-6.95-3.97-1.88-1.51-3.33-3.19-4.32-5.07-.99-1.88-1.44-3.87-1.29-5.99,.15-2.11,.91-4.29,2.36-6.51,1.46-2.23,3.37-4.12,5.74-5.6,2.36-1.48,5.06-2.51,8.03-3.03,2.97-.52,6.15-.53,9.47,0,3.32,.54,6.6,1.62,9.76,3.23,3.21,1.64,5.72,3.52,7.54,5.55,1.82,2.03,2.93,4.12,3.38,6.22,.45,2.1,.22,4.13-.6,6.09-.82,1.97-2.22,3.8-4.12,5.54Zm-9.04-5.53c2.44-2.54,3.6-4.95,3.27-7.32-.32-2.36-2.02-4.39-5.15-5.93-2.02-.99-4.15-1.51-6.33-1.53-2.18-.02-4.28,.48-6.24,1.49-1.96,1.01-3.64,2.46-5.02,4.31-1.37,1.84-2.1,3.61-2.27,5.28-.17,1.68,.24,3.16,1.16,4.45,.93,1.29,2.34,2.32,4.21,3.14,2.84,1.23,5.6,1.52,8.48,.85,2.88-.66,5.48-2.23,7.89-4.74Z"/><path class="cls-2" d="M274.52,83.35c.22-.15,.45-.31,.67-.46-1.86-.21-3.49-.48-4.93-.86-1.44-.38-2.79-.91-4.08-1.61-1.29-.7-2.53-1.59-3.73-2.68-1.6-1.45-2.82-3.03-3.67-4.8-.85-1.76-1.29-3.61-1.29-5.56,0-1.94,.44-3.88,1.4-5.79,.96-1.91,2.37-3.71,4.29-5.36,4.06-3.48,8.8-5.08,13.94-4.61,5.13,.46,9.89,2.77,13.77,6.76,2.24,2.31,3.66,4.51,4.31,6.52,.65,2.01,.79,4.17,.44,6.46,3.87-1.76,7.86-3.37,11.98-4.82,1.71-.6,3.32-.66,4.79-.16,1.47,.5,2.73,1.49,3.75,2.97,1.02,1.48,1.35,2.73,1.04,3.75-.31,1.02-1.29,1.72-2.89,2.16-12.55,3.43-24.09,8.45-34.41,14.69-1.34,.81-2.55,1.12-3.67,.94-1.12-.18-2.04-.73-2.81-1.67-.75-.92-1.07-1.9-.93-2.97,.14-1.07,.81-2.05,2.05-2.91Zm-3.49-20.5c-1.85,1.39-3.05,2.88-3.67,4.42-.62,1.55-.71,3.04-.3,4.48,.41,1.44,1.2,2.71,2.36,3.84,1.18,1.15,2.53,1.98,4.08,2.52,1.55,.54,3.25,.69,5.12,.45,1.88-.24,3.84-.95,5.91-2.13,1.95-1.11,3.39-2.36,4.26-3.8,.87-1.44,1.19-2.94,.93-4.52-.26-1.57-1.04-3.06-2.34-4.42-1.36-1.42-3-2.45-4.87-3.05-1.88-.6-3.84-.72-5.84-.34-2,.38-3.89,1.24-5.63,2.55Z"/></g><g><path class="cls-2" d="M55.08,253.86c-4.24-5.14-8.01-10.47-11.31-15.93-3.61,1.48-7.35,2.82-11.21,3.99,2.77,4.87,5.88,9.66,9.33,14.33,.96,1.3,1.39,2.38,1.25,3.27-.13,.89-.72,1.54-1.79,1.95-1.06,.41-2.17,.4-3.31-.04-1.14-.44-2.2-1.33-3.14-2.66-3.46-4.86-6.58-9.85-9.35-14.92-5.14,1.26-10.47,2.25-15.96,2.93-2.09,.26-3.9-.06-5.38-.94-1.48-.88-2.56-2.1-3.23-3.63-.67-1.55-.67-2.85-.04-3.86,.64-1.02,2-1.57,4.05-1.72,12.74-.92,24.65-3.57,35.46-7.59,1.23-.46,2.31-.67,3.25-.62,.95,.04,1.78,.36,2.53,.95,.75,.59,1.44,1.45,2.11,2.59,3.69,6.33,8.06,12.49,13.09,18.38,1.02,1.19,1.52,2.24,1.46,3.16-.06,.92-.55,1.66-1.49,2.21-.96,.56-2.01,.7-3.12,.44-1.11-.27-2.21-1.03-3.24-2.28Z"/><path class="cls-2" d="M60.41,273.89c-7.86,4.24-16.34,7.9-25.39,10.87-1.88,.62-3.68,.66-5.37,.13-1.68-.52-3.06-1.43-4.11-2.71-1.05-1.27-1.37-2.45-.99-3.5,.37-1.06,1.49-1.82,3.33-2.33,8.96-2.5,17.41-5.71,25.25-9.51,1.63-.79,3.14-1.07,4.56-.84,1.42,.23,2.63,.84,3.66,1.86,1.02,1.01,1.49,2.07,1.38,3.17-.11,1.11-.88,2.07-2.33,2.85Zm4.67-8.05c-.97-.94-1.45-1.95-1.46-3.01,0-1.06,.59-1.94,1.77-2.66,1.07-.65,2.27-.86,3.62-.64,1.35,.22,2.48,.76,3.4,1.62,.89,.83,1.39,1.76,1.5,2.81,.1,1.05-.42,1.99-1.6,2.78-1.15,.77-2.41,1.04-3.77,.81-1.36-.23-2.52-.8-3.45-1.71Z"/><path class="cls-2" d="M75.91,286.69c-.32,.21-.64,.42-.97,.62,3.36-.09,6.34,.15,9.02,.76,2.67,.61,5.22,1.65,7.71,3.12,2.42,1.43,4.2,3,5.32,4.78,1.12,1.77,1.42,3.56,.81,5.38-.29,1.09-.89,2.12-1.82,3.08-.93,.96-2.27,2.11-4.07,3.41-5.08,3.67-10.46,7.13-16.11,10.36-1.83,1.04-3.71,1.52-5.61,1.43-1.9-.09-3.61-.65-5.09-1.64-1.5-1.01-2.2-2.1-2.13-3.22,.07-1.13,1.03-2.13,2.83-3.06,5.11-2.63,10.01-5.46,14.69-8.47,2.77-1.79,4.38-3.48,4.92-4.98,.54-1.51-.48-3.04-2.96-4.65-1.62-1.05-3.48-1.74-5.64-2.09-2.15-.35-4.28-.29-6.42,.17-1.67,.41-4.21,1.61-7.78,3.47-3.65,1.9-7.43,3.7-11.32,5.37-1.89,.81-3.74,1.04-5.52,.69-1.78-.35-3.32-1.13-4.58-2.32-1.22-1.15-1.7-2.28-1.46-3.38,.24-1.1,1.29-1.98,3.12-2.67,9.02-3.41,17.45-7.49,25.23-12.12,1.54-.91,2.99-1.34,4.39-1.28,1.4,.06,2.68,.53,3.85,1.43,.72,.55,1.21,1.14,1.48,1.8,.27,.65,.26,1.33-.03,2.03-.29,.7-.91,1.37-1.86,1.99Z"/><path class="cls-2" d="M117.94,337.8c.28-.23,.57-.46,.85-.69-2.97,.55-5.7,.84-8.14,.91-2.45,.07-4.82-.1-7.11-.52-2.28-.41-4.5-1.08-6.62-2.02-2.81-1.23-4.91-2.74-6.3-4.45-1.39-1.71-2.04-3.54-2-5.46,.05-1.92,.79-3.82,2.17-5.74,1.38-1.91,3.32-3.75,5.77-5.55,5.19-3.82,10.53-6.21,16.36-7.27,5.83-1.06,11.32-.79,16.83,.87,3.19,.96,5.6,2.05,7.18,3.39,1.58,1.33,2.77,3.04,3.55,5.15,3.45-3.84,6.7-7.77,9.73-11.77,1.27-1.67,2.65-2.85,4.2-3.57,1.55-.72,3.17-.96,4.91-.73,1.74,.23,2.82,.79,3.22,1.72,.4,.93,.07,2.2-1.04,3.8-8.69,12.51-19.28,24.45-31.68,35.38-1.61,1.42-3.41,2.31-5.36,2.68-1.96,.37-3.83,.27-5.6-.28-1.74-.54-2.71-1.35-2.95-2.4-.24-1.05,.45-2.2,2.03-3.48Zm-10.76-18.4c-2.21,1.77-3.68,3.45-4.35,5.07-.67,1.62-.6,3.09,.25,4.42,.85,1.32,2.3,2.4,4.34,3.19,2.08,.81,4.39,1.21,6.92,1.2,2.53-.01,5.12-.53,7.73-1.55,2.61-1.02,5.05-2.59,7.26-4.69,2.08-1.97,3.29-3.84,3.69-5.56,.4-1.72,.09-3.19-.88-4.42-.98-1.23-2.47-2.13-4.46-2.74-2.08-.63-4.29-.85-6.67-.66-2.38,.18-4.74,.77-7.13,1.76-2.39,.99-4.61,2.31-6.71,3.99Z"/><path class="cls-2" d="M190.06,336.83c-9.08,.21-17.97-.15-26.63-1.02-1.63,1.96-2.53,3.74-2.66,5.36-.12,1.62,.47,2.92,1.81,3.89,1.34,.97,3.25,1.56,5.74,1.75,1.67,.13,3.3,.1,4.91-.08,1.6-.18,3.28-.52,5.04-1.02,1.75-.51,3.43-1.08,5.03-1.71,1.6-.63,3.7-1.5,6.28-2.65,1.03-.43,2.22-.67,3.57-.72,1.45-.05,2.44,.16,2.96,.67,.52,.5,.43,1.26-.29,2.26-.63,.88-1.89,1.94-3.78,3.13-1.89,1.19-4.29,2.34-7.19,3.37-2.9,1.04-6.2,1.84-9.88,2.36-3.67,.52-7.52,.6-11.48,.22-9.07-.9-14.36-3.6-16.13-7.37-1.79-3.8-.06-8.18,4.61-13.32,2.19-2.43,4.72-4.63,7.58-6.64,2.86-2.01,5.92-3.7,9.21-5.13,3.29-1.42,6.77-2.52,10.5-3.32,3.72-.8,7.5-1.27,11.39-1.4,5.06-.18,9,.27,11.8,1.56,2.8,1.28,4.46,3.09,4.86,5.51,.4,2.42-.19,5-1.86,7.73-1.55,2.53-3.61,4.24-6.12,5.11-2.51,.87-5.61,1.38-9.25,1.47Zm-22.56-5.96c7.94,.65,16.07,.86,24.35,.59,1.88-3.27,2.18-5.69,1.07-7.22-1.11-1.54-3.4-2.23-6.83-2.2-3.27,.03-6.46,.78-9.65,2.26-3.19,1.48-6.14,3.66-8.94,6.58Z"/><path class="cls-2" d="M225.88,336.38c-1.7,2.99-3.48,5.97-5.33,8.92-1.35,2.15-3.11,3.86-5.25,5.1-2.14,1.24-4.34,1.97-6.54,2.18-2.17,.21-3.57-.17-4.21-1.09-.64-.92-.23-2.39,1.17-4.41,6.48-9.38,12.16-19.03,17.01-28.82,2.35-4.74,5.58-7.57,10-8.66,2.26-.56,3.65-.43,4.17,.46,.52,.88,.36,2.44-.53,4.67,2.66-2.68,5.05-4.88,7.24-6.58,2.19-1.7,4.71-3.02,7.6-4.02,2.88-1,5.48-1.43,7.8-1.26,2.32,.17,3.16,1.25,2.45,3.29-.5,1.44-1.52,2.85-3.06,4.22-1.54,1.37-3.01,2.28-4.39,2.75-.52,.18-1.67,.35-3.45,.47-1.78,.13-3.41,.42-4.93,.87-2.06,.62-3.92,1.53-5.61,2.74-1.69,1.21-3.27,2.73-4.79,4.57-1.52,1.84-2.99,3.92-4.45,6.25-1.45,2.33-3.07,5.11-4.9,8.34Z"/></g></svg>